<?xml version="1.0" encoding="utf-8"?>
<!-- Generator: Adobe Illustrator 24.0.3, SVG Export Plug-In . SVG Version: 6.00 Build 0)  -->
<svg version="1.1" id="Layer_1" xmlns="http://www.w3.org/2000/svg" xmlns:xlink="http://www.w3.org/1999/xlink" x="0px" y="0px"
	 viewBox="0 0 321 79" style="enable-background:new 0 0 321 79;" xml:space="preserve">
<style type="text/css">
	.om_color_1{fill-rule:evenodd;clip-rule:evenodd;fill:#755db5}
</style>
<title>Combined Shape</title>
<path id="Combined-Shape" class="om_color_1" opacity="0.4" d="M283.1-43.5c0.3,2.3,0.6,4.6,1,6.9c0.8,5.6,1.2,11.2,0.6,16.8
	c-0.3,2.4-0.7,4.8-1.4,7.1l0,0c0,0,0,0,0,0c1.7,2.7,2.9,5.8,4.1,8.7c1.2,3,2.2,6,3.1,9c0.8,2.8,1.5,5.7,1.9,8.7
	c0.3,2.3,0.6,4.8,0.2,7.1c0.1,0.2,0.2,0.4,0.1,0.6c4.9,4.1,8.5,9.8,9.8,16.1c1.5,7.2-1.5,14-5.9,19.5c-2.5,3.1-5.4,6-8.7,8.3
	c-0.2,0.1-0.5,0-0.6-0.2c-0.8-1.3-1.6-2.6-2.2-4c-3-6-5.1-12.8-4.8-19.6c0.1-4,1.1-8,3.4-11.4c1.4-2.1,3.1-3.9,4.7-5.7l1.1-1.2
	c0.8-0.8,1.5-1.6,2.2-2.4c0,0,0,0,0.1,0c-0.2-2.5-0.2-5-0.5-7.4c-0.4-2.8-1.1-5.6-1.9-8.3c-0.8-2.9-1.8-5.8-2.9-8.7
	c-0.9-2.3-1.9-4.5-2.8-6.7c0.6,5.8,0.4,11.7-0.2,17.4c-0.9,7.9-3,15.5-6.7,22.5c-1.5,2.9-3.2,5.6-5,8.3c-1.6,2.4-3.2,4.9-5.1,7.3
	c0.1,0.2,0,0.5-0.2,0.7c1.2,4.8,1.2,9.9,0,14.7c-1.1,4.1-3,7.8-6.2,10.5c-2.7,2.4-6.1,4-9.5,5.2c-4.3,1.4-9.1,2.2-13.7,2.1
	c-0.2,0-0.5-0.2-0.4-0.4c0.1-1.5,0.2-2.9,0.5-4.3c1-6.5,3.2-13,7.1-18.3c2.4-3.2,5.4-6,9.1-7.5c2.4-1,4.9-1.5,7.4-2l1.5-0.3
	c1.3-0.2,2.5-0.5,3.8-0.8c0,0,0.1,0,0.1,0c1.5-2.9,3.6-5.6,5.4-8.4c3.7-5.7,6.9-11.8,8.8-18.4c1.2-4.3,2-8.7,2.4-13.2
	c0.5-5.6,0.4-11.2,0.4-16.8l0,0l0,0l0,0l-0.2,0.7c-0.1,0.5-0.3,0.9-0.5,1.4c-1.2,3.5-2.7,7.4-5.1,10.3c0,0-0.1,0.1-0.1,0.1
	c1.3,5.8,1.2,11.9-0.3,17.6c-1.4,5.2-3.9,10-7.8,13.7c-3.5,3.3-7.7,5.6-12.2,7.1c-5.3,1.9-11.3,3-17,2.8c-0.2,0-0.4-0.2-0.4-0.4
	c-0.1-1.8,0.1-3.5,0.3-5.3c0.8-8,3.4-16,8.3-22.4c3.2-4.2,7.2-7.8,12.1-9.8c3.4-1.4,6.9-2.2,10.4-3l1.8-0.4c1.5-0.3,2.9-0.7,4.4-1.1
	c0.2,0,0.3,0,0.4,0.1c0.9-1.9,1.9-3.6,2.7-5.5c0.8-1.9,1.6-3.8,2.1-5.8c1.7-5.9,2.2-12.2,1.8-18.3c-0.2-2.4-0.5-4.9-0.7-7.3
	c-0.2-1.9-0.5-3.9-0.4-5.8C282.7-43.7,283.1-43.8,283.1-43.5z M76.1,69.1c0.5-0.2,1.1-0.3,1.7-0.2c0.5,0,1,0.2,1.5,0.4
	c1.3,0.5,2.4,1.5,2.8,2.4l0,0l0,0l0.1,0.3c0.3,1.2,0,2.5-0.6,3.6c-0.7,1.1-2.3,2.5-4,2.4l0,0l-0.1,0l-0.3,0c-1-0.2-1.9-0.6-2.5-1.2
	c-0.8-0.7-1.4-1.9-1.5-3C73,72.2,74,70.1,76.1,69.1z M265.6,46.4c-0.6,0.7-1.2,1.4-1.8,2.1l-1.8,2c-0.9,1-1.8,2.1-2.6,3.1
	c-0.8,1-1.6,2-2.4,3.1l-2.4,3.1c-2,2.6-4,5.1-6.1,7.6c-1.9,2.2-3.9,4.4-6,6.4c-1.3,1.2-2.6,2.4-4,3.3l-0.5,0.4l0.2,0
	c2.5-0.7,4.7-2.1,6.8-3.5c4.7-3.4,8.9-7.6,12.4-12.2c1.8-2.5,3.5-5.1,4.9-7.9C263.7,51.4,264.6,48.9,265.6,46.4z M265.9,47.1
	c-0.9,2.9-2.2,5.7-3.6,8.2c-2.9,5.3-6.7,10-11.1,14.1c-3.3,3.1-7.3,6.5-11.8,8c0.6,0,1.1-0.1,1.7-0.1c2.1-0.4,4.2-1.1,6.1-2.1
	c6.6-3.2,12.1-8.5,15.7-14.9c1.3-2.3,2.2-4.7,2.6-7.3c0.2-1.2,0.3-2.5,0.3-3.7l0.1-1.5L265.9,47.1z M78.9,70.1
	c-0.9-0.4-1.9-0.4-2.5-0.2c-1.8,0.8-2.5,2.7-2.4,3.7c0.1,0.9,0.6,1.8,1.2,2.5c0.5,0.5,1.3,0.8,2.2,0.9l0,0l0,0
	c1.1,0.1,2.5-0.9,3.1-1.9c0.6-0.9,0.7-2.1,0.4-3.1C80.9,71.3,80,70.5,78.9,70.1z M266.5,48.3c0,2-0.2,4.1-0.6,6
	c-1.4,6.5-6.1,12.4-11,16.5c-3.3,2.7-7.2,5-11.3,6.2c6.1-0.8,12.4-2.9,16.9-7.1C266.1,64.4,267.2,55.9,266.5,48.3z M264,46.4
	c-0.6,0.1-1.1,0.2-1.7,0.3c-2.8,1-5.6,2.2-8.1,3.8c-3.3,2.2-5.7,5.3-7.8,8.6c-3.6,5.6-6.4,11.6-8.7,17.9c1.7-1.9,3.1-3.9,4.5-6
	c3.1-4.6,5.7-9.6,9.1-14C254.9,52.5,259.2,49.1,264,46.4z M280.2,67.9c2.2,0,4.1,1.6,4.5,3c0.3,1.1,0.2,2.3-0.2,3.3
	c-0.3,0.8-0.9,1.5-1.8,2.1l-0.2,0.2l-0.1,0c-1.5,0.8-3.6,0.2-4.6-0.5c-1-0.7-1.7-1.8-2-3l0-0.2l0,0c0-1,0.5-2.3,1.5-3.3
	c0.4-0.4,0.8-0.7,1.2-0.9C279.1,68.1,279.7,67.9,280.2,67.9z M265.1,46.2c-0.1,0-0.1,0-0.2,0c-2.8,1.5-5.4,3.2-7.8,5.3
	c-4.5,4-7.7,9.1-10.8,14.2c-1.5,2.4-3,4.9-4.6,7.2c-0.9,1.3-1.9,2.7-3,3.9c1.8-1.3,3.5-2.9,5-4.5c4-4.1,7.5-8.7,11-13.3
	C257.9,54.7,261.1,50,265.1,46.2z M280.2,68.8c-0.7,0-1.5,0.4-2.2,1.2c-0.8,0.8-1.3,1.9-1.3,2.6c0.2,1.1,0.8,2.1,1.7,2.7
	c1,0.7,2.7,1.1,3.6,0.5l0,0c0.8-0.5,1.4-1.1,1.7-1.8c0.3-0.8,0.4-1.9,0.1-2.7C283.6,70.2,282.1,68.8,280.2,68.8z M260.7,47
	c-2.9,0.5-5.7,1.1-8.3,2.4c-6.6,3.3-10.7,10.6-12.8,17.5c-0.7,2.3-1.3,4.6-1.6,7l-0.1,0.9l0.3-0.8c0.6-1.5,1.3-3.1,2-4.5
	c2.4-5.1,5.2-10.3,8.8-14.7C252,50.9,256.2,48.6,260.7,47z M209.3,63.7c0.7,0.9,1,2.1,0.8,3.2l0,0.2l0,0c-0.2,0.8-0.9,1.6-1.8,2.2
	l-0.2,0.1l-0.2,0.1c-1,0.5-2.1,0.7-2.8,0.4c-1.9-0.6-3-2.5-3-3.9c0-1,0.4-2.1,1.1-2.8c0.3-0.3,0.6-0.6,1-0.8
	c0.4-0.2,0.9-0.4,1.4-0.5C206.9,61.6,208.6,62.8,209.3,63.7z M228,61.5c1.2,0.4,2.2,1.3,2.7,2.3l0.1,0.2l0,0c0.3,1,0.1,2.3-0.5,3.6
	c-0.6,1.1-1.5,1.9-2.3,2.1c-2.1,0.6-4.3-0.4-5.1-1.7c-0.6-0.9-0.9-2.1-0.8-3.2c0.1-0.9,0.6-1.8,1.3-2.6c0.2-0.2,0.4-0.4,0.7-0.5
	C225.2,61,227,61.1,228,61.5z M205.6,62.8c-0.8,0.2-1.4,0.6-1.9,1c-0.5,0.6-0.8,1.5-0.9,2.3c0,0.9,0.8,2.5,2.4,3
	c0.5,0.2,1.3,0,2.1-0.4c0.9-0.5,1.6-1.2,1.8-1.9c0.1-0.9-0.1-1.9-0.7-2.7C207.9,63.4,206.6,62.6,205.6,62.8z M224,62.9
	c-0.6,0.7-1,1.4-1.1,2.1c-0.1,0.8,0.2,1.9,0.6,2.6c0.6,0.9,2.3,1.8,4.1,1.3c0.6-0.2,1.3-0.8,1.8-1.7c0.5-1,0.7-2.1,0.5-2.8
	c-0.5-0.9-1.3-1.7-2.3-2.1C226.5,61.9,224.8,62.1,224,62.9z M22.9-41.3c-0.1-0.3,0.3-0.4,0.5-0.1c0.7,1.5,1.3,3,1.8,4.6l0.4,1.3
	c0.8,2.5,1.6,5.1,2.5,7.6c2.4,6.3,5.6,12.3,10,17.4c1.5,1.7,3,3.3,4.7,4.8c1.7,1.5,3.5,2.8,5.2,4.2c0.1-0.1,0.2-0.2,0.4-0.2
	c1.9-0.3,3.7-0.6,5.6-1l1.9-0.4c3.7-0.7,7.4-1.4,11.2-1.5C73-4.7,78.7-3,83.7-0.2c7.8,4.3,13.9,11,18.4,18.6c1,1.6,1.9,3.4,2.6,5.1
	c0.1,0.2,0,0.5-0.2,0.6c-5.6,2.7-12.1,4.2-18.3,4.7c-5.2,0.4-10.5,0-15.4-1.7c-5.6-1.9-10.3-5.6-14-10.2c-4.1-5-7-11-8.2-17.3
	c0,0-0.1,0-0.2,0c-3.7-1.8-7-4.9-9.8-7.9c-0.6-0.6-1.1-1.2-1.6-1.8c0,0,0,0,0,0.1c2.5,5.6,4.9,11.2,7.9,16.5c2.4,4.2,5.2,8.3,8.3,12
	c4.9,5.7,10.7,10.3,17,14.3c3,1.9,6.3,3.7,9.1,5.9c0,0,0.1,0,0.1-0.1c4.7-0.9,9.3-2.4,14.1-2.6c4.4-0.1,8.7,1.3,12.5,3.4
	c6.3,3.5,11.5,9,15.4,15c0.9,1.3,1.7,2.7,2.4,4.1c0.1,0.2,0,0.5-0.2,0.6c-4.6,2.1-9.7,3.4-14.7,3.9c-4,0.4-8,0.2-11.9-0.9
	c-4.4-1.4-8.1-4.2-10.9-7.7c-3.4-4.2-5.7-9.2-6.6-14.6c-0.3,0-0.5-0.3-0.5-0.5c-2.9-1.5-5.6-3.3-8.3-5c-3-1.9-6-3.9-8.8-6.1
	c-6.8-5.3-12.4-12-16.8-19.4c-3.2-5.4-6-11.2-8-17.2c0.1,2.6,0.1,5.2,0.2,7.9c0.2,3.3,0.5,6.6,1,9.9c0.4,3.1,1,6.1,1.9,9.1
	c0.7,2.6,1.9,5,2.8,7.6c0,0,0.1,0,0.1,0c4.1,1.9,8.4,3.3,12.3,5.7c3.8,2.4,6.6,5.9,8.5,9.8c3.3,6.6,4.3,14.2,4,21.5
	c-0.1,1.6-0.2,3.3-0.5,4.9c0,0.2-0.3,0.5-0.5,0.4c-4.3-0.8-8.6-2.4-12.4-4.4c-6.8-3.5-12.9-9-14.6-16.7c-1.5-6.8-0.4-14,2.6-20.2
	c-0.2-0.2-0.2-0.5-0.2-0.7c-1.5-2-2.3-4.7-3-7.1c-0.9-3.1-1.6-6.2-2-9.4c-0.5-3.4-0.8-6.9-0.9-10.3c-0.1-3.4-0.3-7,0.2-10.4
	c0,0,0-0.1,0-0.1c-1.7-2-3.2-4.2-4.6-6.5c-3.1-5.3-5.2-11.1-6.9-16.9C24.4-36.5,23.7-38.9,22.9-41.3z M43.3,28.1l0.2,1l0.3,1.9
	c0.3,1.9,0.7,3.8,1.2,5.7c1,3.5,2.3,6.9,3.9,10.2c2.6,5.4,6.1,10.6,10.2,15c1.9,2.1,4.1,4.1,6.6,5.4c0.1,0,0.1,0,0.2,0
	c-1.5-1.5-2.9-3.2-4.1-5c-1.8-2.5-3.4-5.2-4.9-7.9c-3.1-5.6-5.8-11.5-8.6-17.2C46.8,34.2,45,31.2,43.3,28.1L43.3,28.1z M42.8,28.7
	c0,0.3-0.1,0.5-0.1,0.8l-0.2,1.6c-0.2,1.6-0.5,3.2-0.5,4.8c-0.1,3.7,1,7.2,2.4,10.6c2.8,6.7,7.4,12.8,13.3,17.1
	c1.6,1.1,3.3,2.1,5,2.9c0.6,0.2,1.2,0.4,1.9,0.5c-4.3-2.6-7.8-6.9-10.7-10.9c-3.9-5.4-7-11.3-8.9-17.6C44,35.4,43.2,32.1,42.8,28.7z
	 M45,28.5c4.2,3.7,7.9,7.8,10.5,12.8c3.1,5.8,4.9,12.1,7.3,18.1c1,2.6,2.2,5.2,3.6,7.6c-1-6-2.2-11.8-4.2-17.6c-1-2.9-2-5.8-3.4-8.4
	c-1.6-3-3.9-5.6-6.5-7.9c-1.8-1.5-3.7-2.7-5.6-3.9C46.2,28.9,45.6,28.7,45,28.5z M43.8,28c3.5,5.1,6,10.8,8.6,16.3
	c2.7,5.6,5.4,11.2,8.8,16.4c1.3,2.1,2.7,4.1,4.4,5.9c-1.1-1.7-1.8-3.6-2.6-5.3c-1.3-3-2.4-6.1-3.5-9.1c-2.2-6.1-4.6-12.1-8.6-17.2
	c-2-2.5-4.3-4.8-6.8-6.9C44,28,43.9,28,43.8,28z M42,30c-2.8,9-3.1,19.3,3.7,26.6c3.9,4.2,9.1,7.1,14.6,9.1
	c-3.5-1.9-6.6-4.6-9.3-7.5c-2.6-2.9-4.8-6.2-6.5-9.8c-1.6-3.4-2.9-7.1-3.1-10.9C41.2,35,41.5,32.5,42,30z M48.6,29.9
	c3.8,2.4,7.3,5.3,9.8,9.1c1.7,2.7,2.9,5.7,4,8.7c1.2,3.3,2.2,6.6,3,10c0.6,2.2,1.1,4.5,1.4,6.9c0.2-3,0.1-6.1-0.2-9.1
	c-0.8-7.8-3.7-16.8-10.5-21.6C53.8,32.1,51.2,31,48.6,29.9z M292.3,22.5c-0.2,3.2-0.6,6.4-0.7,9.6c0,1.3-0.1,2.6-0.1,3.9l-0.1,3.9
	c-0.1,3.3-0.2,6.6-0.5,9.8c-0.2,2.8-0.5,5.7-1.1,8.5c-0.4,1.9-0.8,3.9-1.5,5.7c0.1,0,0.1-0.1,0.1-0.1c1.6-2.1,2.7-4.5,3.5-7
	c1.7-5.2,2.7-10.9,2.8-16.4c0.1-3.3-0.1-6.7-0.6-10C293.7,27.8,293,25.2,292.3,22.5z M291,23.5c-0.4,0.4-0.8,0.8-1.2,1.3
	c-1.2,1.7-2.3,3.5-3.2,5.4c-1.4,2.8-2.3,5.9-2.4,9c-0.1,2.8,0.1,5.6,0.3,8.4c0.6,5.6,1.7,11,3.2,16.4c0.2-2.6,0.2-5.2,0.1-7.8
	c-0.3-6-1.1-12-0.7-18C287.4,32.9,288.9,28.1,291,23.5z M293,22.9c1,2.9,1.6,6.1,1.9,9.1c0.7,6,0.4,12.2-0.8,18.1
	c-0.9,4.4-2.1,9.3-4.8,13.1c0.5-0.4,0.9-0.8,1.3-1.1c1.2-1.3,2.2-2.8,3.1-4.3c3.4-5.8,4.9-12.6,4.7-19.3c-0.1-3.4-0.6-6.7-2-9.8
	C295.5,26.6,294.2,24.8,293,22.9z M291.8,22.6c-0.1,0.1-0.1,0.1-0.2,0.2c-1.3,2.7-2.3,5.4-3,8.3c-1.4,5.8-1.1,11.7-0.7,17.7
	c0.2,3,0.5,6,0.6,9c0.1,1.8,0.1,3.6-0.1,5.4c0.7-2.1,1.1-4.4,1.4-6.6c0.8-5.7,1-11.4,1.1-17.1C291,33.9,290.9,28.1,291.8,22.6z
	 M80.8,42.2l0.1,0.4c2.7,7.8,7.6,15.5,15.7,18.3c6.4,2.3,13.6,1.5,20.1-0.3c-4.7,0.6-9.6,0.1-14.1-1.2c-6.9-1.9-14.2-5.7-18.5-11.5
	l0,0l-0.4-0.6c-1-1.4-1.8-2.9-2.6-4.4l0,0L80.8,42.2z M288.6,26c-1.8,1.9-3.5,3.8-4.8,6c-3.8,6.5-2.8,15.2-0.6,22.1
	c0.9,2.6,1.9,5.3,3.3,7.8c-0.6-2.1-1-4.2-1.4-6.3c-0.6-3.2-1-6.3-1.2-9.5c-0.2-2.9-0.4-5.9,0-8.8C284.5,33.1,286.3,29.4,288.6,26z
	 M80.8,40.8c1,1.9,1.9,3.9,3.1,5.7c1.6,2.4,3.6,4.4,5.9,6.1c6.5,4.7,14.4,7.6,22.4,7.9c2.4,0.1,4.7-0.1,7-0.6
	c0.6-0.2,1.2-0.4,1.7-0.6c-5.2,0.4-10.7-1.1-15.4-2.7c-6.2-2.1-12.2-5.1-17.4-9.1C85.5,45.4,83,43.2,80.8,40.8z M294.2,23.6
	c1.3,1.9,2.5,4,3.4,6.1c1.3,3.3,1.6,6.8,1.5,10.3c-0.1,3.6-0.6,7.2-1.7,10.6c-1.1,3.4-2.7,6.8-4.9,9.7c3.8-3.7,7.1-8,8.7-13
	C304,38.7,299.9,30.2,294.2,23.6z M234.5-34.7c-0.5,4.9-1.4,9.8-2.5,14.6c-2.2,9.9-5.4,19.5-9.5,28.7c-0.5,1.1-1,2.3-1.6,3.4
	c0.1,3.5-0.4,7-1.2,10.3c-0.9,3.3-2.3,6.3-3.7,9.4c-2.3,4.8-5.2,10.7-10.3,12.9c-1.8,0.8-4.6,1.2-6.2-0.4c-1.4-1.5-1.3-3.9-1.1-5.8
	c0.7-5.4,3.2-10.5,6.7-14.6c2.2-2.6,4.8-4.9,7.4-7.1c2.6-2.2,5.2-4.4,7.9-6.4c0.1-0.1,0.1-0.1,0.2,0c1.9-4,3.6-8.1,5.1-12.3
	c-0.7,0.8-1.4,1.6-2.1,2.4c-1.6,1.8-3.2,3.5-4.9,5.1c-4.5,4.3-9.5,8.2-15,11.3c-2.4,2.4-4.4,5.1-6.1,8.1c-2.5,4.4-4.6,9-7.1,13.4
	c-0.3,6.1-3.3,11.6-7.7,15.7c-2.7,2.5-6.1,5.4-10,5.8c-1.7,0.2-3.3-0.3-4.5-1.6c-1.8-1.8-1.3-4.1-0.1-6.1c2.2-3.7,6.4-6.2,10.1-8.3
	c3.8-2.2,7.7-4.3,11.7-5.9c1.4-2.4,2.7-4.9,3.9-7.4c2.2-4.5,4.6-9.2,8.1-12.8c-1.2,0.6-2.4,1.3-3.6,1.8c-1.2,0.6-2.5,1.1-3.8,1.6
	c-4.9,5.4-12.1,8.8-18.9,11c-4.9,1.6-10.8,3.6-15.8,1c-1.7-0.9-3.3-2.3-3.5-4.3c-0.2-2.4,2-4.3,3.8-5.6c4.9-3.4,10.8-4.8,16.7-4.9
	c3.1,0,6.2,0.2,9.3,0.6c3,0.3,5.9,0.6,8.9,1.1c0.1,0,0.2,0.1,0.2,0.2c5.1-2.3,10-5,14.5-8.4c3.3-2.4,6.5-5.1,9.4-8.1
	c1.4-1.4,2.8-2.9,4.1-4.5c1.1-1.3,2.2-2.8,3.4-4.1c1-2.9,1.9-5.7,2.6-8.7c-1.7,2.9-4,5.6-6.5,7.7c-4.4,3.7-9.7,6.2-15.4,6.9
	c-0.1,0-0.2-0.1-0.2-0.2c-0.2,0.1-0.4,0.1-0.5-0.2c-0.2-0.6-0.5-1.3-1-1.7c-0.5-0.3-1.1-0.4-1.6-0.4c-1,0-2,0.3-3,0.7
	c-1.4,0.6-3.6,1.6-3.4,3.5c0.1,0.9,1,1.6,1.8,1.8c0.9,0.2,1.9,0,2.8-0.2c1-0.3,1.9-0.7,2.8-1.1c0.6-0.3,1.8-0.8,1.7-1.6
	c0-0.3,0.4-0.4,0.5-0.1c0.4,1-0.6,1.7-1.4,2.1c-1.2,0.7-2.5,1.3-3.9,1.6c-1.1,0.3-2.2,0.4-3.2-0.1c-0.9-0.4-1.7-1.2-1.9-2.2
	c-0.4-2.4,2-3.8,3.8-4.6c1.2-0.5,2.6-0.9,3.9-0.7c1.5,0.2,2.8,1.3,2.7,2.9c0,0,0,0.1,0,0.1l0,0l0,0c5.5-1,10.8-3.4,15-7.1
	c3.7-3.1,6.3-7,8.1-11.4c1.4-5.6,2.5-11.3,3.4-17C233.8-35.3,234.6-35.2,234.5-34.7z M80.8,40c2.1,2,4.2,4.1,6.5,5.9
	c2.7,2.1,5.5,4,8.5,5.7c5.5,3.1,11.7,5.4,17.9,6.7c2.7,0.6,5.6,0.9,8.4,0.5l0,0l0.2-0.1l-0.6-0.1c-1.9-0.3-3.8-0.9-5.6-1.6
	c-3-1.1-6-2.3-8.9-3.7c-3.2-1.5-6.3-3.2-9.5-4.8l-3.7-2c-1.2-0.7-2.5-1.3-3.8-2C87.1,42.9,83.9,41.5,80.8,40z M189.6,38.5
	c-3.8,1.9-7.6,3.7-11.3,5.9c-3.3,2-7.3,4.1-9.3,7.6c-0.6,1.1-1.3,2.5-1.1,3.9c0.2,1,1,1.9,1.8,2.4c1.5,1,3.3,0.7,4.9,0.2
	c3.3-1.2,6.2-3.6,8.6-6.1c3.6-3.7,5.8-8.3,6.8-13.4c-0.6,0.9-1.1,1.8-1.7,2.7c-3.7,5.4-8.1,10.1-13.4,13.9c-0.1,0.1-0.2-0.1-0.1-0.2
	c3.1-2.4,5.9-5,8.5-8C185.7,44.5,187.7,41.6,189.6,38.5z M81.5,39.5c-0.1,0-0.1,0-0.2,0c5.7,2.1,11.1,5.3,16.4,8.2
	c5.5,3,11.1,6,17,8.3c2.3,0.9,4.6,1.8,7,2.2c-1.7-0.7-3.3-1.6-4.8-2.6c-2.7-1.6-5.3-3.4-7.9-5.1c-5.4-3.7-10.9-7.3-17.2-9.3
	C88.3,40.3,84.9,39.8,81.5,39.5z M94.1,39.1c-3.3-0.5-6.6-0.5-9.8-0.2c-0.6,0.2-1.2,0.3-1.8,0.4c6.1,0.6,11.9,2,17.5,4.9
	c5.4,2.9,10.3,6.6,15.4,9.8c2.3,1.5,4.7,2.8,7.2,4c-5.2-5.1-10.6-9.9-16.8-13.9C102.2,41.8,98.4,39.8,94.1,39.1z M95.4,37.2
	c-3.2-0.2-6.3,0.5-9.4,1.3c5.2-0.3,10.5,0.1,15.3,2.5c5.6,2.8,10.7,6.7,15.4,10.7c1.6,1.3,3.2,2.8,4.6,4.3c-1.6-2.5-3.4-4.8-5.3-7
	C110.9,43,103.5,37.5,95.4,37.2z M224.9,45c0.9,0.6,1.5,1.5,2,2.7c0.7,1.8-0.5,4-1.6,5c-1,0.9-2.4,1.5-3.8,1.5l-0.3,0l-0.1,0
	c-1.1-0.2-2.4-1.1-3.3-2.4c-0.8-1.2-1.2-2.5-0.9-3.5c0.4-1.7,1.5-3,2.7-3.7c0.6-0.3,1.1-0.5,1.7-0.6C222.5,44,223.9,44.3,224.9,45z
	 M221.4,45c-1.2,0.1-3.1,1.4-3.5,3.5c-0.2,0.7,0.1,1.8,0.8,2.7c0.7,1.1,1.8,1.9,2.7,2c0.9,0,1.8-0.2,2.6-0.6
	c0.3-0.2,0.6-0.4,0.8-0.6c1-0.9,1.8-2.8,1.4-4c-0.4-1-0.9-1.8-1.6-2.3C223.6,45.2,222.4,44.9,221.4,45z M128.2,38l0.2,0
	c0.3,0,0.6,0.1,0.8,0.2c1,0.4,1.8,1.1,2.3,1.9c0.5,0.9,0.8,2.2,0.6,3.2c-0.2,1.5-1.8,3.3-4,3.6c-0.9,0.1-2-0.2-3-1
	c-1.1-0.9-1.9-2-1.9-3l0,0l0,0l0-0.2c0.1-1.2,0.7-2.4,1.6-3.3c0.8-0.7,2.3-1.5,3.7-1.4L128.2,38z M128.8,39c-1-0.4-2.6,0.2-3.5,1
	c-0.8,0.7-1.2,1.8-1.3,2.8c0.1,0.7,0.7,1.7,1.6,2.4c0.8,0.6,1.6,0.9,2.3,0.8c1.9-0.3,3.1-1.8,3.2-2.8c0.1-0.9-0.1-1.9-0.5-2.6
	C130.3,39.9,129.7,39.4,128.8,39z M219.9,11.7c-2.3,2.1-4.8,4-7.2,6c-2.6,2.2-5.2,4.5-7.3,7.2c-3.2,3.9-5.4,8.7-6.1,13.7
	c-0.2,1.9-0.4,4.8,1.8,5.6c2.4,0.8,5.1-0.5,6.9-2c4-3.4,6.2-8.5,8.3-13.1c1.3-2.8,2.4-5.6,3-8.7c0.5-2.2,0.7-4.4,0.8-6.6
	c-3.9,7.8-8.5,15.4-14.5,21.7c-0.3,0.3-0.8-0.2-0.5-0.5c3.7-4.7,7.2-9.5,10.2-14.7C217,17.5,218.5,14.6,219.9,11.7z M276.2,0.8
	c-2.6,2.9-5.3,5.8-7.7,8.8c-4.7,5.6-9.1,11.5-13.6,17.2c-2.4,3-4.8,5.9-7.5,8.7c-2,2-4,3.9-6.4,5.4c0.1,0,0.2,0,0.3,0
	c3.4-1,6.5-2.9,9.3-5.1c6.1-4.6,11.3-10.4,15.8-16.6c2.2-3,4.2-6.1,5.9-9.4C273.7,6.8,274.9,3.8,276.2,0.8z M276.5,1.3
	c-1.2,3.5-2.8,6.8-4.6,10c-3.7,6.7-8.5,12.8-13.9,18.2c-4.5,4.5-9.8,9.2-16,11.2c0.4,0,0.9,0,1.3-0.1c3.2-0.6,6.3-1.6,9.2-3.1
	c8.2-4.1,15-11.2,19.6-19.1c1.7-2.8,2.9-5.9,3.5-9.1C276.2,6.7,276.3,4,276.5,1.3z M277,2.1c-0.1,2.9-0.3,5.9-1,8.7
	c-0.8,3.5-2.4,6.7-4.3,9.7c-2.7,4.2-6,8.1-9.8,11.5c-4.7,4.1-10.1,7.2-16.1,8.7c8.4-1,17.3-3.8,23.3-10
	C276.4,23.2,278.2,12.1,277,2.1z M274.4,1c-0.7,0.2-1.4,0.3-2,0.5c-2.8,1-5.6,2.2-8.2,3.6c-3.5,1.9-6.8,4.4-9.5,7.4
	c-2.4,2.8-4.4,6-6.2,9.3c-3.3,6-5.6,12.3-8,18.7c2.4-2.6,4.3-5.5,6.2-8.5c0.8-1.3,1.6-2.7,2.3-4l0.9-1.6c2.6-4.5,5.3-9,8.8-12.9
	C263.2,8.2,268.6,4.3,274.4,1z M275.7,0.7c-0.1,0-0.2,0-0.3,0.1c-3.4,1.9-6.6,3.9-9.6,6.4c-6,4.9-10.5,10.9-14.3,17.5
	c-1.9,3.2-3.7,6.5-5.6,9.7c-1.3,2-2.7,4.1-4.4,5.9c2.6-1.8,4.9-4,7-6.3c5-5.6,9.4-11.7,14-17.6C266.6,10.9,270.8,5.4,275.7,0.7z
	 M270.4,1.9c-4.1,0.9-8.1,1.8-11.8,3.7c-8.4,4.3-13.8,13.2-16.3,22.1c-1,3.6-1.7,7.5-1.8,11.3c0.9-3,2.1-6,3.3-8.8
	c2.9-6.9,6.5-14.1,11.8-19.4C259.8,6.6,264.9,3.9,270.4,1.9z M147,30c0.5-0.1,1-0.1,1.5-0.1c0.4,0,0.9,0.2,1.2,0.3
	c0.9,0.4,1.7,1.3,2.1,2.1c0.6,1.3,0.3,3.4-1.1,4.7c-0.6,0.6-1.6,0.8-2.8,0.8l0,0l-0.3,0l-0.3,0c-1.1-0.2-2-0.6-2.5-1.3l0,0l0,0
	l-0.1-0.2c-0.6-1-0.7-2.1-0.5-3.2C144.5,32,145.5,30.3,147,30z M149.3,31.1c-0.6-0.3-1.3-0.3-2.1-0.2c-1,0.2-1.9,1.4-2.1,2.4
	c-0.2,0.9,0,1.9,0.5,2.7c0.4,0.5,1.4,0.9,2.4,1c0.9,0.1,1.7-0.1,2.1-0.5c1.2-1.1,1.3-2.9,0.9-3.7C150.7,32.1,150,31.4,149.3,31.1z
	 M30.9-110c0.1-0.2,0.5-0.2,0.5,0.1c-0.5,2.7-1.1,5.4-1.5,8.1c-0.4,3-0.6,6-0.7,8.9c0,3,0.1,6.1,0.4,9.1c0.3,2.4,1,4.9,1.2,7.3
	c6.1,2.9,12.5,4.8,18.2,8.4c5.6,3.5,9.8,8.9,12.7,14.8c4.9,9.9,6.3,21.4,5.9,32.3c-0.1,2.4-0.3,4.9-0.6,7.3c0,0.2-0.3,0.5-0.5,0.4
	c-6.3-1.2-12.6-3.5-18.3-6.5C37.8-24.8,28.7-33,26.3-44.8c-1-4.7-1.2-9.6-0.6-14.5c-0.3,0.6-0.6,1.2-0.8,1.9
	c-1.3,3.1-2.4,6.2-3.3,9.4c-1.7,5.6-3.1,11.4-3.7,17.2c-0.2,2-0.2,4-0.3,6c0,0,0.1,0.1,0.1,0.1c1,1.3,2,2.6,3.1,3.9l1.3,1.5
	c1.9,2.3,3.7,4.6,5.3,7.2C30.2-7.3,31.4-2,31.4,3.6c0,9.6-3.4,18.9-8.1,27.1c-1.1,1.9-2.2,3.8-3.5,5.5c-0.2,0.2-0.5,0.3-0.7,0.1
	c-4.5-3.6-8.5-8.2-11.7-13.1c-2.7-4.1-4.9-8.5-5.9-13.3C0.3,4.4,1-1.1,3-6.3c2.8-7,7.6-13.2,13.6-17.7c-0.1-0.2,0-0.5,0.1-0.6
	c-0.4-1.7-0.3-3.6-0.2-5.3c0.2-2.7,0.6-5.3,1.2-7.9c1.3-6.4,3.2-12.6,5.6-18.6c0.8-2.1,1.7-4.2,2.8-6.2c0.8-4.4,2.1-8.7,4-12.7
	c-0.2-0.2-0.2-0.5-0.1-0.8c-1-2.2-1.3-5-1.6-7.4c-0.3-3-0.5-6-0.4-9c0.1-3.1,0.3-6.2,0.8-9.3C29.2-104.6,29.7-107.5,30.9-110z
	 M17-22.9c-1.3,4.1-2.6,8-3.5,12.2C12.6-6.3,12.1-1.7,12,2.8c-0.2,7.5,0.7,15.2,2.6,22.5c0.9,3.3,2.1,6.7,4.1,9.5
	c0.1,0.1,0.1,0.1,0.2,0.2c-0.9-2.6-1.3-5.3-1.6-8c-0.5-3.9-0.6-7.8-0.7-11.7C16.4,7.1,16.9-1,17.2-9.1C17.3-13.7,17-18.3,17-22.9z
	 M18.3-21.7c2.7,7,4.4,14.2,4.3,21.8c-0.1,4.9-0.7,9.8-1.4,14.6l-0.4,2.7c-0.3,2.2-0.6,4.4-0.8,6.6c-0.4,3.6-0.6,7.2-0.4,10.8
	c2.5-7.2,4.5-14.4,5.7-21.9c0.6-3.7,1.1-7.4,1.2-11.2c0.2-4.5-0.8-8.9-2.4-13c-1.2-3-2.8-5.9-4.5-8.7C19.3-20.5,18.8-21.1,18.3-21.7
	z M17.5-22.7c0.8,8.1,0.2,16.4-0.2,24.5c-0.3,7.7-0.5,15.5,0.1,23.1c0.2,3.1,0.6,6.2,1.5,9.2c-0.2-2.6,0-5.3,0.2-7.8
	c0.4-4,0.9-8,1.5-12c1.1-8.1,2.1-16.2,0.7-24.3c-0.7-4.3-2.1-8.4-3.7-12.4C17.6-22.5,17.6-22.6,17.5-22.7z M16.3-22.7
	c-1.8,2.5-3.8,5-5.3,7.7C9-11.4,8-7.6,7.4-3.6c-1.3,9.7,0,19.7,4.1,28.5c1.2,2.6,2.8,5.1,4.6,7.4c0.5,0.5,1,1,1.6,1.5
	c-1.3-2.1-2.2-4.4-3-6.8c-1.2-3.7-2-7.6-2.6-11.4C11.1,7.4,11.1-1,12.6-9.2C13.4-13.7,14.6-18.3,16.3-22.7z M176.5,19.2
	c-5.5,0.1-10.9,1.5-15.6,4.6c-1.9,1.2-4.7,3.5-3.4,6.1c0.9,1.8,3.1,2.9,5,3.3c2.7,0.6,5.6,0.1,8.2-0.5c2.7-0.7,5.4-1.6,8-2.6
	c3-1.1,5.8-2.5,8.5-4.2c1.9-1.2,3.6-2.5,5.3-4c-5.7,2.1-11.5,3.6-17.3,5.3c-0.1,0-0.2-0.2-0.1-0.2c4.4-1.4,8.7-2.6,13-4.1
	c1.9-0.7,3.9-1.4,5.7-2.2c0,0,0.1-0.1,0.1-0.1c-2.8-0.1-5.5-0.6-8.3-0.8C182.7,19.4,179.6,19.2,176.5,19.2z M21.1-18.4l0.3,0.5
	c3,5.3,5.4,10.9,5.7,17.1c0.2,3.9-0.3,7.8-0.8,11.7c-0.6,4.2-1.4,8.4-2.5,12.6c-0.8,3.1-1.6,6.2-2.7,9.2c2.4-3.7,4.4-7.8,5.9-11.9
	c3.6-9.5,5.4-21.4,0.2-30.7C25.5-13,23.3-15.7,21.1-18.4L21.1-18.4z M15.3-22.2l-0.3,0.3C6.8-14,0.2-3.2,2.2,8.5
	c1.4,8.3,6.4,15.7,12,21.8c-3.3-4.8-5.5-10.4-6.7-16C6.4,9.2,6.1,3.9,6.6-1.3c0.4-4.2,1.2-8.5,3-12.3C11.1-16.7,13.1-19.5,15.3-22.2
	L15.3-22.2z M123.5,19.1c0.6-0.2,1.3-0.3,2.1-0.2c1.7,0.2,3.5,1,4.8,2.5c0.7,0.9,1,2.4,0.7,3.9c-0.3,1.7-1.3,3.2-2.4,3.9l0,0l-0.1,0
	l-0.3,0.1c-1.5,0.6-3.3,0.7-4.9,0.2c-1.7-0.5-4.1-2.2-4.2-4.3c-0.1-1.4,0.2-2.7,0.8-3.6C120.8,20.5,122.1,19.5,123.5,19.1z
	 M129.5,22.1c-1.6-2-4.3-2.4-5.6-2c-1.2,0.4-2.3,1.2-2.9,2.1c-0.5,0.8-0.7,1.8-0.6,3c0.1,1.4,1.9,2.9,3.5,3.4
	c0.4,0.1,0.8,0.2,1.2,0.2c1.1,0.1,2.2-0.1,3.1-0.5c0.9-0.5,1.6-1.8,1.9-3.2C130.2,23.9,130,22.8,129.5,22.1z M49.5,1.2l0.2,0.5
	C53,11.9,59.7,21.8,70.2,25.9c8.9,3.4,19,2.4,27.9-0.4C91.4,26.7,84.5,26,78,24c-5.3-1.6-10.3-4.1-15-7c-3.3-2.1-6.3-4.6-8.6-7.7
	C52.4,6.8,50.9,4,49.5,1.2L49.5,1.2z M49.6,0.2c1.5,2.6,2.8,5.2,4.4,7.6c2.1,3,4.7,5.4,7.6,7.5c8.2,5.8,18.1,9.9,28.2,10.4
	c3.6,0.2,7.2-0.2,10.6-1c0.5-0.2,0.9-0.3,1.4-0.5c-7.1,0.7-14.6-1.6-21.1-4.1c-7.8-3-15.4-6.9-22.1-11.9C55.5,5.8,52.4,3.1,49.6,0.2
	z M49.7-0.4c2.7,2.4,5.2,4.9,8,7.1c3.2,2.5,6.6,4.7,10.1,6.7c7.3,4.1,15.1,7.6,23.3,9.5c3.8,0.9,7.8,1.4,11.6,0.9
	c0.1,0,0.2-0.1,0.3-0.1c-3-0.4-6-1.4-8.8-2.5c-3.9-1.5-7.7-3.4-11.4-5.3c-7.1-3.7-14.2-7.5-21.4-11.1C57.6,2.9,53.6,1.3,49.7-0.4z
	 M50.5-0.9c-0.1,0-0.2,0-0.3,0.1c7,2.5,13.7,6.1,20.2,9.6c7.3,3.8,14.4,7.9,22,11.2c3.1,1.4,6.4,2.6,9.8,3.2c-2.5-1-4.8-2.4-7-3.9
	c-3.4-2.2-6.7-4.7-10-7.1C78.4,7.4,71.2,3.4,63,1.2C58.9,0.1,54.7-0.5,50.5-0.9z M63.7-1.5c-3.3-0.3-6.6-0.2-9.8,0
	c-0.7,0.2-1.5,0.3-2.3,0.4C59-0.3,66.1,1.2,72.9,4.3c7.4,3.4,13.7,8.4,20.4,13.1c3.2,2.2,6.4,4.2,10,5.7l0,0l-0.9-0.9l-1.8-1.7
	C96.3,16.1,91.9,11.8,87,8c-3.2-2.4-6.7-4.8-10.4-6.4C72.5-0.2,68.2-1.2,63.7-1.5z M69.6-3.5C65-3.8,60.5-2.9,56.1-2
	c6.4-0.3,12.8,0,18.8,2.3c7.7,2.9,14.5,8.5,20.6,14c2.5,2.3,5,4.7,7.3,7.3c-1.8-3.7-4.3-7.2-6.9-10.4C89.4,3.5,80-2.9,69.6-3.5z
	 M250.3-98.2c1.9,1.7,3.4,3.9,4.8,6.1c1.5,2.4,2.9,4.9,4.1,7.5c1.2,2.5,2.2,5.1,3,7.7c0.7,2.1,1.5,4.5,1.4,6.8
	c0.2,0.2,0.3,0.4,0.2,0.7c3.1,2.7,5.8,5.8,8.1,9.2c1.6,1.3,3.2,2.8,4.6,4.2c4.3,4.2,8.2,8.7,11.6,13.6c1.4,2,2.8,4.1,3.9,6.2
	c0.7,1.4,1.5,2.9,1.8,4.5c0.2,0.1,0.3,0.3,0.3,0.5c6.6,1.6,12.9,4.9,17.9,9.8c3.7,3.6,6.2,8,7.3,13.1c0.9,4.4,0.8,9,0.1,13.4
	c-0.8,5.2-2.4,10.5-4.8,15.2c-0.1,0.2-0.4,0.3-0.6,0.2c-1.7-1-3.4-2.1-5-3.3c-6.9-5.2-13.3-11.8-16.9-19.8
	c-2.1-4.7-3.1-9.6-2.4-14.6c0.6-4.8,2.2-9.4,3.3-14.1c0-0.1,0-0.1,0.1-0.1c-0.8-1.7-1.6-3.3-2.5-4.9c-2.7-4.7-6-9-9.5-13.1
	c-2-2.3-4.1-4.6-6.3-6.7c-0.4-0.4-0.9-0.8-1.4-1.3c2.2,3.9,3.9,8,4.9,12.4c2.4,10.8-2.1,21-8.6,29.2c-3.6,4.5-8,8.8-12.8,12.1
	c-0.2,0.1-0.5,0-0.6-0.2c-1.2-1.9-2.3-3.9-3.3-5.9c-4.5-9-7.5-19.2-7.2-29.3c0.2-6.1,1.6-12.1,5-17.1c3.4-5.1,8-9.1,12-13.7
	c-0.7-2.1-1-4.4-1.7-6.6c-0.8-2.6-1.9-5.2-3-7.8c-1.2-2.5-2.4-4.9-3.9-7.3c-1.3-2.2-2.9-4.2-4.3-6.3
	C249.9-98.1,250.2-98.3,250.3-98.2z M293.8-28.8c-0.2,0.7-0.3,1.3-0.5,2c-0.4,2.9-0.6,5.9-0.4,8.9c0.2,4.1,1.1,8.1,2.9,11.8
	c1.5,3.1,3.3,6.1,5.2,8.9c3.9,5.8,8.2,11.2,13,16.3c-1.2-3.1-2.7-6-4.4-8.9c-3.7-6.3-8-12.4-11.1-19.1
	C295.5-15.3,294.2-21.9,293.8-28.8z M294.5-30.3c1.7,3.9,3.2,7.8,5,11.7c3.2,6.7,6.7,13.3,9.6,20.1c1.4,3.3,2.7,6.6,3.8,10
	c0.7,2.4,1.4,4.8,1.7,7.3c0-0.1,0.1-0.1,0.1-0.2c0.6-3.1,0.3-6.4-0.2-9.5c-1.1-6.8-3.3-13.6-6.3-19.8c-1.8-3.7-3.9-7.3-6.3-10.7
	C299.7-24.5,297-27.4,294.5-30.3z M294.1-29.9c0,0.1,0,0.2-0.1,0.3c0.2,4,0.6,7.9,1.6,11.7c1.9,7.3,5.7,13.8,9.7,20.1
	c2,3.2,3.9,6.3,5.7,9.5c1,1.8,2.1,3.8,2.8,5.8l0.2,0.7l-0.1-0.7c-0.4-2.6-1.2-5.1-2.1-7.6c-2.4-6.7-5.4-13.1-8.6-19.4
	C300.1-16.1,296.4-22.8,294.1-29.9z M292.8-25c-0.9,3.1-1.7,6.2-1.9,9.4c-0.8,9.7,5.1,19,11.7,25.7c2.8,2.9,6,5.6,9.4,7.8
	c-2.1-2.1-3.9-4.4-5.7-6.7c-2.4-3.1-4.7-6.3-6.8-9.7c-1.9-3-3.8-6.2-5.1-9.5C292.3-13.5,292.2-19.3,292.8-25z M295.1-30.3l0.6,0.6
	c2.6,2.6,4.9,5.5,7,8.5l0.5,0.8c4.3,6.3,7.4,13.4,9.6,20.7c1,3.4,1.8,7,2.2,10.5c0.2,2.2,0.3,4.6,0.1,6.8c0.3-0.6,0.5-1.2,0.7-1.9
	c0.7-2.6,1-5.2,1.1-7.9c0.2-8.9-2.6-17.8-7.3-25.5c-1.9-3.2-4.3-6-7.3-8.3c-2.1-1.5-4.3-2.8-6.5-4.1L295.1-30.3z M296.2-30.3
	c2.8,1.4,5.5,3.1,7.9,5.1c3,2.5,5.2,5.8,7.1,9.2c2.3,4.2,4.1,8.7,5.1,13.4c1.1,5.2,1.4,10.7,0.4,15.9c2.4-7.2,3.7-15.2,1.8-22.7
	C315.7-20.1,306-26.8,296.2-30.3z M75.6-54.2c-0.3-0.4,0.5-0.9,0.8-0.5c3.4,5.3,7.1,10.5,11,15.5c3.8,3.6,8.1,6.3,13.2,7.8
	c5.9,1.7,12.2,1.9,18.2,0.4c0,0,0,0,0,0c0,0-0.1-0.1-0.1-0.1c-0.8-1.6,0-3.3,1.5-4.1c1.3-0.7,2.8-0.9,4.2-1c2.2-0.1,5.2,0.2,5.9,2.9
	c0.3,1.1-0.2,2.2-0.9,3c-0.8,0.9-2,1.3-3.2,1.5c-1.5,0.2-3.1,0.3-4.6,0.1c-0.9-0.1-2.3-0.3-2.3-1.5c0-0.3,0.4-0.4,0.5-0.1
	c0.3,0.9,1.7,0.8,2.4,0.8c1.1,0,2.2,0,3.3-0.1c1-0.1,2.1-0.4,2.9-1c0.8-0.6,1.3-1.6,1-2.6c-0.6-2-3.3-2.1-5-2
	c-1.1,0.1-2.2,0.2-3.3,0.7c-0.6,0.2-1.1,0.6-1.4,1.1c-0.4,0.6-0.3,1.4-0.3,2.1c0,0.3-0.2,0.5-0.5,0.4c0.1,0.1,0,0.3-0.1,0.3
	c-6.1,1.8-12.5,1.7-18.5,0c-3.5-1-6.9-2.6-9.9-4.8c2.1,2.6,4.3,5,6.5,7.5c0.7,0.3,1.4,0.7,2.1,1l0,0l2.1,1c0.3,0.2,0.7,0.3,1,0.5
	c2,1,4,1.8,6.1,2.6c4.2,1.6,8.6,2.9,13,3.9c6.1,1.3,12.1,1.9,18.3,1.9c0-0.1,0-0.2,0.1-0.3c2.8-1.8,5.6-3.4,8.4-5
	c2.9-1.7,5.9-3.3,9-4.7c6-2.6,12.5-3.7,18.9-2.5c2.3,0.4,5.4,1.3,6.3,3.9c0.7,2-0.3,4.3-1.6,5.9c-3.8,4.7-10.7,5.4-16.3,6
	c-7.8,0.8-16.5,0.7-23.9-2.5c-1.5,0.1-3,0.1-4.5,0.1c-1.5,0-3-0.1-4.4-0.2c5.1,2,9.7,5.6,13.8,9.1c2.4,2,4.7,3.8,7.2,5.6
	c4.8-0.3,9.6,0.1,14.4,0.6c4.6,0.5,9.9,1.1,13.8,3.8c2.1,1.5,3.5,3.5,2.6,6.1c-0.6,1.8-2.1,3-3.8,3.6c-4,1.3-8.7,0-12.6-1.3
	c-6.2-2.2-11.6-6.3-14.7-12.2c-4.5-3.2-8.6-7-13.1-10.2c-3-2.2-6.3-4-9.7-5.3c-6.8-0.7-13.6-2.4-20-4.6c-2.4-0.9-4.9-1.8-7.2-2.9
	c-1-0.5-2.1-0.9-3.1-1.5c3.4,3.5,6.9,6.8,10.6,10c0.1,0,0.1-0.1,0.2,0c3.6,0.8,7.2,1.9,10.8,2.9c3.6,1,7.2,2.2,10.6,3.8
	c5.3,2.5,10,6.5,13.2,11.6c1.1,1.8,2.3,4.1,1.5,6.2c-0.9,2.3-3.9,3.1-6.1,3.2c-6.1,0.1-11.7-4.5-16.1-8.3c-2.8-2.4-5.6-4.8-7.9-7.7
	c-2.4-2.9-4.4-6.3-5.8-9.8c-1-0.9-2.1-1.8-3.1-2.7c-8.2-7.3-15.7-15.6-22.3-24.4C81.4-45,78.3-49.5,75.6-54.2z M153.3-1.2
	c3.2,2.3,6.6,4.3,10.3,6c3.9,1.8,7.9,3.2,12.1,4.2c0.2,0,0.1,0.3,0,0.3c-7-1.4-13.6-4.1-19.6-7.9c-1-0.6-2-1.3-2.9-1.9
	c3.2,4.6,7.6,8.2,12.7,10.3c3.5,1.4,7.5,2.6,11.3,2.3c1.8-0.1,3.8-0.7,4.9-2.4c0.6-0.9,1-2.1,0.7-3.2c-0.4-1.4-1.7-2.5-2.8-3.4
	c-3.5-2.5-8.5-3-12.7-3.5C162.6-0.8,158-1,153.3-1.2z M111-14.4c2.7,2.3,5.5,4.5,8.3,6.5c5.3,3.8,11,7.1,16.8,10.1
	c0.4,0.2,0.2,0.9-0.3,0.7c-8.8-3.6-16.8-9.1-24.2-15.2c1.1,2.1,2.3,4.2,3.7,6.2c2,2.7,4.4,5.1,6.9,7.3c4.2,3.7,8.7,7.8,14.2,9.4
	c2.4,0.7,5.8,0.9,7.8-1c1.9-1.7,0.4-4.6-0.7-6.4c-2.9-4.7-7.3-8.5-12.2-11c-3.4-1.7-7-2.9-10.6-3.9C117.7-12.5,114.3-13.3,111-14.4z
	 M245.4-5.8c0.6,1.1,0.9,2.4,0.6,3.6l-0.1,0.3l0,0c-0.4,1-1.4,1.9-2.8,2.5c-1.2,0.5-2.4,0.6-3.2,0.2c-2.1-0.9-3.1-3.1-2.9-4.7
	c0.1-1.1,0.7-2.3,1.5-3.1c0.2-0.2,0.5-0.4,0.8-0.6c0.6-0.3,1.2-0.5,2-0.7C243-8.4,244.7-6.9,245.4-5.8z M241.4-7.2
	c-0.9,0.1-1.7,0.5-2.2,1c-0.6,0.6-1.1,1.6-1.2,2.5c-0.1,1,0.6,2.9,2.4,3.7c0.6,0.3,1.5,0.2,2.5-0.2c1.1-0.5,1.9-1.2,2.2-1.9
	c0.3-1.1,0.1-2.2-0.4-3.1C243.9-6.3,242.5-7.3,241.4-7.2z M263.5-68.6c-0.4,5.1-1,10.1-1.1,15.2c-0.3,8.8-0.3,17.6-0.9,26.4
	c-0.3,4.2-0.8,8.5-1.5,12.7c-0.5,3.1-1.2,6.2-2.4,9.1c0.1-0.1,0.2-0.2,0.4-0.3c2.4-3,4-6.7,5.2-10.3c2.7-7.9,4.1-16.5,4.3-24.9
	c0.1-5-0.1-10-0.9-15C265.8-60,264.6-64.3,263.5-68.6z M262.2-67.4c-0.5,0.6-1,1.1-1.6,1.7c-2.1,2.8-4,5.8-5.5,9
	c-2.1,4.2-3.5,8.8-3.7,13.6c-0.2,4.2,0.1,8.5,0.5,12.7c0.8,8.6,2.5,17,4.9,25.3c0.5-4.1,0.5-8.4,0.2-12.5c-0.1-2.5-0.3-5-0.5-7.6
	l-0.2-2.5c-0.4-5.5-0.8-11-0.5-16.4C256.4-52.6,258.8-60.1,262.2-67.4z M263-68.4l-0.2,0.2c-2,4.1-3.7,8.4-4.8,12.9
	c-2.2,8.7-1.8,17.6-1.1,26.5l0.3,3.9c0.2,3.2,0.5,6.5,0.6,9.7c0.1,2.8,0.1,5.8-0.3,8.6l-0.1,0.7l0.3-0.7c1.1-3.1,1.7-6.5,2.2-9.8
	c1.2-8.4,1.5-17,1.7-25.5c0.1-8.4,0.1-17,1.3-25.4L263-68.4z M264.1-68.3c1.6,4.8,2.6,9.8,3.2,14.7c1.1,9,0.6,18.1-1,26.9
	c-0.9,4.5-2,8.9-3.7,13.1c-1.1,2.6-2.3,5.3-4,7.6c0.7-0.6,1.4-1.1,2.1-1.7c2-2.1,3.8-4.5,5.2-7.1c5-8.6,7.3-18.8,7-28.9
	c-0.1-5-0.9-10-3-14.7C268.3-61.9,266.1-65,264.1-68.3z M259.3-64.3c-3.2,3.3-6.3,6.5-8.6,10.5c-2.9,5.1-3.8,11.4-3.7,17.3
	c0.1,5.4,1.2,10.8,2.9,15.9c1.5,4.5,3.4,9.1,5.8,13.3c-1.2-3.6-1.9-7.3-2.6-10.9c-0.9-4.7-1.5-9.5-1.9-14.2c-0.3-4.4-0.6-8.8,0-13.2
	C252.1-52.6,255.3-58.7,259.3-64.3z M268.6-62.2c1,1.8,1.9,3.6,2.6,5.5c1.8,4.9,2.3,10.2,2.2,15.4c-0.1,5.3-0.9,10.6-2.4,15.6
	c-1.8,5.9-4.6,11.6-8.6,16.3c6.3-5.8,12-12.9,14.6-21.2c1.8-5.7,1.7-11.4,0-17.2c-1.2-4.2-3.1-8.1-5.5-11.7
	C270.6-60.4,269.6-61.3,268.6-62.2z M175.4-28.5c-6-1-12,0-17.6,2.3c-3.1,1.3-6.1,2.9-9,4.6c-2.6,1.5-5.2,3.2-7.9,4.5l0,0l0.1,0
	l1.3,0c1.8-0.1,3.6-0.2,5.4-0.3c5-0.4,9.9-1.1,14.9-1.7c0.2,0,0.2,0.2,0,0.2l0,0l-3,0.4c-5.5,0.8-11.1,1.6-16.7,2
	c2.3,0.7,4.6,1.3,7.1,1.6c3.4,0.5,6.9,0.6,10.4,0.4c3.1-0.2,6.1-0.5,9.1-1c3-0.5,6-1.3,8.5-3.1c1.7-1.2,3.4-3.2,3.5-5.4
	C181.6-27,177.8-28.1,175.4-28.5z M30.9-74.7c0.8,4.7,1.6,9.5,2.9,14.2c1.5,5.3,3.5,10.4,5.8,15.3c4,8.3,9.3,16.2,15.5,22.9
	c2.9,3.1,6.1,6.1,9.9,8c0.2,0,0.3,0.1,0.5,0.1c-2.5-2.3-4.6-5.2-6.6-8c-2.6-3.8-5-7.8-7.2-11.9c-4.6-8.5-8.6-17.2-12.8-25.9
	C36.4-65,33.6-69.8,30.9-74.7z M32.8-74.1c6.7,5.8,12.5,12.3,16.7,20.3c4.5,8.6,7.2,18,10.8,26.9c1.7,4.3,3.5,8.5,5.9,12.4
	c-1.2-9.3-3.4-18.5-6.4-27.4c-1.5-4.4-3.1-8.8-5.2-12.9c-2.4-4.6-5.9-8.5-9.9-11.8c-3-2.5-6.2-4.6-9.6-6.5
	C34.3-73.5,33.5-73.8,32.8-74.1z M30.5-74.2c-0.6,4.2-1.4,8.3-1.4,12.5c0,5.5,1.5,10.8,3.6,15.9c4.2,10.2,11.1,19.3,20,25.7
	c2.6,1.9,5.5,3.5,8.5,4.7c1,0.3,1.9,0.6,2.9,0.8c-2.7-1.5-5.2-3.6-7.4-5.8c-3.6-3.4-6.7-7.3-9.6-11.4c-5.7-8-10.2-16.9-13.2-26.3
	C32.2-63.3,31.1-68.7,30.5-74.2z M31.5-74.7l0.7,1.1c5,7.8,8.8,16.4,12.7,24.7c4,8.4,8.2,16.8,13.2,24.7c2.1,3.3,4.4,6.6,7.2,9.3
	c-1.9-2.8-3.3-6-4.6-9.1c-1.9-4.6-3.6-9.3-5.3-14c-3.3-9.2-6.9-18.2-13-25.9c-3.1-4-6.8-7.4-10.6-10.7l0,0L31.5-74.7z M81-24.9
	c0.7-0.2,1.4-0.3,2.1-0.2c0.4,0,0.7,0.1,1,0.2c1,0.4,2,1.2,2.6,2.2c0.8,1.3,0.7,3.8-0.8,5.4c-0.6,0.7-1.7,1.1-3,1.1
	c-1.4,0-2.8-0.4-3.5-1.2l0,0l0,0l-0.2-0.2c-0.7-1-1.1-2.3-0.9-3.6C78.3-22.4,79.3-24.4,81-24.9z M28.7-66.1c-0.6,1.4-1.2,2.7-1.8,4
	c-0.7,4.7-0.9,9.4-0.2,14.1c0.9,6.5,3.4,12.2,7.7,17.1c6.4,7.2,15.3,11.7,24.3,14.7c-6.1-2.9-11.6-7.4-16-12.5
	c-3.8-4.3-7-9.3-9.5-14.5c-2.4-5.1-4.3-10.6-4.7-16.3C28.4-61.7,28.5-63.9,28.7-66.1z M83.7-24c-0.7-0.3-1.5-0.3-2.4,0
	c-1.1,0.3-2,1.8-2.1,3c-0.1,1.1,0.2,2.2,0.9,3.1c0.6,0.5,1.6,0.9,2.8,0.9c1,0,1.9-0.3,2.3-0.8c1.3-1.4,1.2-3.4,0.7-4.3
	C85.3-22.9,84.5-23.6,83.7-24z M37.1-72.3c6.5,3.9,12.5,8.5,16.5,15c2.5,4,4.3,8.6,5.9,13.1c1.8,4.9,3.3,9.9,4.5,15
	c1,3.9,1.9,8,2.3,12c0.5-5.2,0.4-10.6-0.2-15.8c-0.6-5.9-1.9-11.7-4.2-17.1c-2.5-5.9-6.2-11.8-11.5-15.6
	C46.4-68.6,41.8-70.5,37.1-72.3z M264.9-67.9c1.2,1.6,2.3,3.3,3.3,5.1c0.1-0.1,0.2-0.1,0.3-0.1c0.5,0.3,1,0.7,1.5,1
	C268.4-64,266.7-66,264.9-67.9z M29.8-73.4c-1,2.7-1.8,5.5-2.4,8.3c0.3-0.6,0.7-1.1,1-1.7c0.1-0.1,0.2-0.1,0.3-0.1
	C29-69,29.4-71.2,29.8-73.4z"/>
</svg>
